<?xml version="1.0" encoding="iso-8859-1"?>
<!-- Generator: Adobe Illustrator 19.0.0, SVG Export Plug-In . SVG Version: 6.00 Build 0)  -->
<svg version="1.1" id="Layer_1" xmlns="http://www.w3.org/2000/svg" xmlns:xlink="http://www.w3.org/1999/xlink" x="0px" y="0px"
	 viewBox="0 0 330 330" style="enable-background:new 0 0 330 330;" xml:space="preserve">
<g id="XMLID_109_">
	<path id="XMLID_110_" d="M25.607,190.607L164.997,51.214l139.396,139.393C307.323,193.536,311.161,195,315,195
		c3.839,0,7.678-1.464,10.606-4.394c5.858-5.858,5.858-15.355,0-21.213l-150.003-150C172.79,16.58,168.976,15,164.997,15
		s-7.794,1.581-10.607,4.394l-149.997,150c-5.858,5.858-5.858,15.355,0,21.213C10.251,196.465,19.749,196.465,25.607,190.607z"/>
	<path id="XMLID_138_" d="M175.603,139.393c-2.813-2.813-6.628-4.393-10.606-4.393c-3.979,0-7.794,1.581-10.607,4.394l-149.996,150
		c-5.858,5.858-5.858,15.355,0,21.213c5.857,5.857,15.355,5.858,21.213-0.001l139.39-139.393l139.397,139.394
		C307.323,313.536,311.161,315,315,315c3.839,0,7.678-1.464,10.606-4.394c5.858-5.858,5.858-15.355,0-21.213L175.603,139.393z"/>
</g>
<g>
</g>
<g>
</g>
<g>
</g>
<g>
</g>
<g>
</g>
<g>
</g>
<g>
</g>
<g>
</g>
<g>
</g>
<g>
</g>
<g>
</g>
<g>
</g>
<g>
</g>
<g>
</g>
<g>
</g>
</svg>
